<svg width="101" height="35" viewBox="0 0 101 35" fill="none" xmlns="http://www.w3.org/2000/svg">
<path d="M42.2974 9.89342L40.4014 15.9774H39.3574L37.9294 11.7294L36.5134 15.9774H35.4574L33.5734 9.89342H34.8694L36.0454 14.1774L37.4614 9.89342H38.4094L39.8134 14.1774L40.9894 9.89342H42.2974ZM48.0968 12.9294C48.0968 13.9614 47.9528 14.7294 47.3768 15.3294C46.9808 15.7374 46.3808 16.0494 45.5528 16.0494C44.7248 16.0494 44.1368 15.7374 43.7408 15.3294C43.1648 14.7294 43.0208 13.9614 43.0208 12.9294C43.0208 11.9094 43.1648 11.1414 43.7408 10.5414C44.1368 10.1334 44.7248 9.82142 45.5528 9.82142C46.3808 9.82142 46.9808 10.1334 47.3768 10.5414C47.9528 11.1414 48.0968 11.9094 48.0968 12.9294ZM46.8728 12.9294C46.8728 12.2694 46.8248 11.6334 46.4528 11.2614C46.2248 11.0334 45.9128 10.9134 45.5528 10.9134C45.1928 10.9134 44.8928 11.0334 44.6648 11.2614C44.2928 11.6334 44.2448 12.2694 44.2448 12.9294C44.2448 13.5894 44.2928 14.2254 44.6648 14.5974C44.8928 14.8254 45.1928 14.9574 45.5528 14.9574C45.9128 14.9574 46.2248 14.8254 46.4528 14.5974C46.8248 14.2254 46.8728 13.5894 46.8728 12.9294ZM54.0261 10.3974L53.1021 11.3214C52.8261 11.0454 52.6101 10.9134 52.1901 10.9134C51.5301 10.9134 50.9781 11.4414 50.9781 12.2814V15.9774H49.7541V9.89342H50.9541V10.5534C51.2661 10.1214 51.8901 9.82142 52.5741 9.82142C53.1621 9.82142 53.6061 9.97742 54.0261 10.3974ZM57.4155 15.9774H56.6595C55.4955 15.9774 54.9915 15.1974 54.9915 14.2974V7.43342H56.2155V14.2254C56.2155 14.6934 56.3835 14.9334 56.8755 14.9334H57.4155V15.9774ZM63.3289 15.9774H62.1289V15.3294C61.6729 15.8814 61.1809 16.0494 60.5209 16.0494C59.9089 16.0494 59.3689 15.8454 59.0329 15.5094C58.4449 14.9094 58.3489 13.9374 58.3489 12.9294C58.3489 11.9334 58.4449 10.9614 59.0329 10.3614C59.3689 10.0254 59.8969 9.82142 60.5089 9.82142C61.1569 9.82142 61.6609 9.97742 62.1049 10.5054V7.43342H63.3289V15.9774ZM62.1049 12.9294C62.1049 11.8494 61.9489 10.9134 60.8449 10.9134C59.7289 10.9134 59.5729 11.8494 59.5729 12.9294C59.5729 14.0094 59.7289 14.9574 60.8449 14.9574C61.9489 14.9574 62.1049 14.0094 62.1049 12.9294ZM42.2974 20.8934L40.4014 26.9774H39.3574L37.9294 22.7294L36.5134 26.9774H35.4574L33.5734 20.8934H34.8694L36.0454 25.1774L37.4614 20.8934H38.4094L39.8134 25.1774L40.9894 20.8934H42.2974ZM48.1568 24.2894H44.2088C44.2088 25.3454 44.7488 25.9934 45.7568 25.9934C46.4408 25.9934 46.8008 25.8014 47.2328 25.3694L48.0128 26.1014C47.3888 26.7254 46.8008 27.0494 45.7328 27.0494C44.2088 27.0494 42.9968 26.2454 42.9968 23.9294C42.9968 21.9494 44.0168 20.8214 45.5768 20.8214C47.2088 20.8214 48.1568 21.9974 48.1568 23.7734V24.2894ZM46.9448 23.4374C46.9208 23.0654 46.8968 22.8734 46.7768 22.6094C46.5728 22.1534 46.1528 21.8414 45.5768 21.8414C44.9888 21.8414 44.5688 22.1534 44.3648 22.6094C44.2448 22.8734 44.2208 23.0654 44.2088 23.4374H46.9448ZM54.2535 26.9774H53.0535V26.4254C52.6095 26.8694 52.1895 27.0494 51.4335 27.0494C50.6775 27.0494 50.1735 26.8694 49.8015 26.4974C49.4895 26.1734 49.3215 25.7054 49.3215 25.1894C49.3215 24.1694 50.0295 23.4374 51.4335 23.4374H53.0295V23.0054C53.0295 22.2254 52.6575 21.8654 51.6975 21.8654C51.0495 21.8654 50.7135 22.0334 50.3655 22.4654L49.5735 21.7094C50.1375 21.0374 50.7255 20.8214 51.7455 20.8214C53.4255 20.8214 54.2535 21.5414 54.2535 22.9094V26.9774ZM53.0295 24.7814V24.2894H51.6255C50.8815 24.2894 50.5095 24.6014 50.5095 25.1654C50.5095 25.7294 50.8575 26.0294 51.6615 26.0294C52.0935 26.0294 52.4415 25.9814 52.7655 25.6814C52.9575 25.5014 53.0295 25.2134 53.0295 24.7814ZM58.6848 26.9774H57.9528C56.8128 26.9774 56.2848 26.1614 56.2848 25.2854V21.8294H55.5888V20.8934H56.2848V19.1534H57.5088V20.8934H58.6848V21.8294H57.5088V25.2254C57.5088 25.6694 57.7248 25.9334 58.1808 25.9334H58.6848V26.9774ZM65.1744 26.9774H63.9504V23.2694C63.9504 22.3214 63.4104 21.9134 62.7264 21.9134C62.0424 21.9134 61.4664 22.3334 61.4664 23.2694V26.9774H60.2424V18.4334H61.4664V21.5054C61.8744 21.0494 62.4384 20.8214 63.0624 20.8214C63.6864 20.8214 64.2024 21.0254 64.5624 21.3734C65.0304 21.8294 65.1744 22.4054 65.1744 23.0894V26.9774ZM71.9107 24.2894H67.9627C67.9627 25.3454 68.5027 25.9934 69.5107 25.9934C70.1947 25.9934 70.5547 25.8014 70.9867 25.3694L71.7667 26.1014C71.1427 26.7254 70.5547 27.0494 69.4867 27.0494C67.9627 27.0494 66.7507 26.2454 66.7507 23.9294C66.7507 21.9494 67.7707 20.8214 69.3307 20.8214C70.9627 20.8214 71.9107 21.9974 71.9107 23.7734V24.2894ZM70.6987 23.4374C70.6747 23.0654 70.6507 22.8734 70.5307 22.6094C70.3267 22.1534 69.9067 21.8414 69.3307 21.8414C68.7427 21.8414 68.3227 22.1534 68.1187 22.6094C67.9987 22.8734 67.9747 23.0654 67.9627 23.4374H70.6987ZM77.8034 21.3974L76.8794 22.3214C76.6034 22.0454 76.3874 21.9134 75.9674 21.9134C75.3074 21.9134 74.7554 22.4414 74.7554 23.2814V26.9774H73.5314V20.8934H74.7314V21.5534C75.0434 21.1214 75.6674 20.8214 76.3514 20.8214C76.9394 20.8214 77.3834 20.9774 77.8034 21.3974ZM86.1637 26.9774H84.9637V26.4254C84.5197 26.8694 84.0997 27.0494 83.3437 27.0494C82.5877 27.0494 82.0837 26.8694 81.7117 26.4974C81.3997 26.1734 81.2317 25.7054 81.2317 25.1894C81.2317 24.1694 81.9397 23.4374 83.3437 23.4374H84.9397V23.0054C84.9397 22.2254 84.5677 21.8654 83.6077 21.8654C82.9597 21.8654 82.6237 22.0334 82.2757 22.4654L81.4837 21.7094C82.0477 21.0374 82.6357 20.8214 83.6557 20.8214C85.3357 20.8214 86.1637 21.5414 86.1637 22.9094V26.9774ZM84.9397 24.7814V24.2894H83.5357C82.7917 24.2894 82.4197 24.6014 82.4197 25.1654C82.4197 25.7294 82.7677 26.0294 83.5717 26.0294C84.0037 26.0294 84.3517 25.9814 84.6757 25.6814C84.8677 25.5014 84.9397 25.2134 84.9397 24.7814ZM93.031 23.9294C93.031 24.9254 92.935 25.9094 92.347 26.5094C92.011 26.8454 91.495 27.0494 90.871 27.0494C90.223 27.0494 89.719 26.8934 89.275 26.3534V29.4374H88.051V20.8934H89.251V21.5414C89.707 20.9894 90.211 20.8214 90.859 20.8214C91.483 20.8214 92.011 21.0254 92.347 21.3614C92.935 21.9614 93.031 22.9334 93.031 23.9294ZM91.807 23.9294C91.807 22.8494 91.651 21.9134 90.547 21.9134C89.431 21.9134 89.275 22.8494 89.275 23.9294C89.275 25.0094 89.431 25.9574 90.547 25.9574C91.651 25.9574 91.807 25.0094 91.807 23.9294ZM99.6638 23.9294C99.6638 24.9254 99.5678 25.9094 98.9798 26.5094C98.6438 26.8454 98.1278 27.0494 97.5038 27.0494C96.8558 27.0494 96.3518 26.8934 95.9078 26.3534V29.4374H94.6838V20.8934H95.8838V21.5414C96.3398 20.9894 96.8438 20.8214 97.4918 20.8214C98.1158 20.8214 98.6438 21.0254 98.9798 21.3614C99.5678 21.9614 99.6638 22.9334 99.6638 23.9294ZM98.4398 23.9294C98.4398 22.8494 98.2838 21.9134 97.1798 21.9134C96.0638 21.9134 95.9078 22.8494 95.9078 23.9294C95.9078 25.0094 96.0638 25.9574 97.1798 25.9574C98.2838 25.9574 98.4398 25.0094 98.4398 23.9294Z" fill="white"/>
<path d="M23.8505 28.4553C29.9367 24.9122 31.9983 17.1062 28.4553 11.02C24.9122 4.93383 17.1062 2.87221 11.02 6.41527C4.93383 9.95832 2.87221 17.7644 6.41526 23.8505C9.95831 29.9367 17.7644 31.9983 23.8505 28.4553Z" fill="url(#paint0_radial_173_78)" stroke="white" stroke-width="2" stroke-linecap="round" stroke-linejoin="round"/>
<path d="M11.02 6.41526C15.5331 7.82829 19.3794 10.8325 21.8433 14.8692C24.1369 19.0049 24.8502 23.833 23.8505 28.4553C19.3374 27.0423 15.4911 24.038 13.0273 20.0014C10.7336 15.8656 10.0203 11.0376 11.02 6.41526Z" fill="url(#paint1_linear_173_78)" stroke="white" stroke-width="2" stroke-linecap="round" stroke-linejoin="round"/>
<path d="M6.41528 23.8505C17.2521 22.6682 22.1529 19.9931 28.4553 11.02" stroke="white" stroke-width="2" stroke-linecap="round" stroke-linejoin="round"/>
<defs>
<radialGradient id="paint0_radial_173_78" cx="0" cy="0" r="1" gradientUnits="userSpaceOnUse" gradientTransform="translate(21.4774 12.4774) rotate(124.875) scale(20.1122)">
<stop stop-color="#3D3FBC"/>
<stop offset="0.370192" stop-color="#F6763F"/>
<stop offset="0.649038" stop-color="#2DA0C9"/>
<stop offset="0.889423" stop-color="#2DC938"/>
</radialGradient>
<linearGradient id="paint1_linear_173_78" x1="11.02" y1="6.41526" x2="10.7947" y2="27.6832" gradientUnits="userSpaceOnUse">
<stop stop-color="#3D3FBC"/>
<stop offset="0.370192" stop-color="#896737"/>
<stop offset="0.649038" stop-color="#2DA0C9"/>
<stop offset="0.889423" stop-color="#2DC938"/>
</linearGradient>
</defs>
</svg>
