<svg width="331" height="37" viewBox="0 0 331 37" fill="none" xmlns="http://www.w3.org/2000/svg">
<path d="M43.25 12.5C43.25 14.1415 43.5733 15.767 44.2015 17.2835C44.8297 18.8001 45.7504 20.1781 46.9112 21.3388C48.0719 22.4996 49.4499 23.4203 50.9665 24.0485C52.483 24.6767 54.1085 25 55.75 25C57.3915 25 59.017 24.6767 60.5335 24.0485C62.0501 23.4203 63.4281 22.4996 64.5888 21.3388C65.7496 20.1781 66.6703 18.8001 67.2985 17.2835C67.9267 15.767 68.25 14.1415 68.25 12.5L64.6196 12.5C64.6196 13.6648 64.3902 14.8181 63.9445 15.8943C63.4987 16.9704 62.8454 17.9482 62.0218 18.7718C61.1982 19.5954 60.2204 20.2487 59.1443 20.6945C58.0681 21.1402 56.9148 21.3696 55.75 21.3696C54.5852 21.3696 53.4319 21.1402 52.3557 20.6945C51.2796 20.2487 50.3018 19.5954 49.4782 18.7718C48.6546 17.9482 48.0013 16.9704 47.5555 15.8943C47.1098 14.8181 46.8804 13.6648 46.8804 12.5H43.25Z" fill="#D9D9D9"/>
<path d="M65.25 12.5C65.25 14.1415 65.5733 15.767 66.2015 17.2835C66.8297 18.8001 67.7504 20.1781 68.9112 21.3388C70.0719 22.4996 71.4499 23.4203 72.9665 24.0485C74.483 24.6767 76.1085 25 77.75 25C79.3915 25 81.017 24.6767 82.5335 24.0485C84.0501 23.4203 85.4281 22.4996 86.5888 21.3388C87.7496 20.1781 88.6703 18.8001 89.2985 17.2835C89.9267 15.767 90.25 14.1415 90.25 12.5L87.1956 12.5C87.1956 13.7404 86.9513 14.9687 86.4766 16.1147C86.0019 17.2607 85.3062 18.302 84.4291 19.1791C83.552 20.0562 82.5107 20.7519 81.3647 21.2266C80.2187 21.7013 78.9904 21.9456 77.75 21.9456C76.5096 21.9456 75.2813 21.7013 74.1353 21.2266C72.9893 20.7519 71.948 20.0562 71.0709 19.1791C70.1938 18.302 69.4981 17.2607 69.0234 16.1147C68.5487 14.9687 68.3044 13.7404 68.3044 12.5H65.25Z" fill="#D9D9D9"/>
<mask id="path-3-outside-1_3_192" maskUnits="userSpaceOnUse" x="20.25" y="10" width="29" height="17" fill="black">
<rect fill="white" x="20.25" y="10" width="29" height="17"/>
<path d="M22.25 12.5C22.25 14.1415 22.5733 15.767 23.2015 17.2835C23.8297 18.8001 24.7504 20.1781 25.9112 21.3388C27.0719 22.4996 28.4499 23.4203 29.9665 24.0485C31.483 24.6767 33.1085 25 34.75 25C36.3915 25 38.017 24.6767 39.5335 24.0485C41.0501 23.4203 42.4281 22.4996 43.5888 21.3388C44.7496 20.1781 45.6703 18.8001 46.2985 17.2835C46.9267 15.767 47.25 14.1415 47.25 12.5L43.9049 12.5C43.9049 13.7022 43.6681 14.8927 43.2081 16.0034C42.748 17.1142 42.0736 18.1234 41.2235 18.9735C40.3734 19.8236 39.3642 20.498 38.2534 20.958C37.1427 21.4181 35.9522 21.6549 34.75 21.6549C33.5478 21.6549 32.3573 21.4181 31.2466 20.9581C30.1358 20.498 29.1266 19.8236 28.2765 18.9735C27.4264 18.1234 26.752 17.1142 26.2919 16.0034C25.8319 14.8927 25.5951 13.7022 25.5951 12.5H22.25Z"/>
</mask>
<path d="M22.25 12.5C22.25 14.1415 22.5733 15.767 23.2015 17.2835C23.8297 18.8001 24.7504 20.1781 25.9112 21.3388C27.0719 22.4996 28.4499 23.4203 29.9665 24.0485C31.483 24.6767 33.1085 25 34.75 25C36.3915 25 38.017 24.6767 39.5335 24.0485C41.0501 23.4203 42.4281 22.4996 43.5888 21.3388C44.7496 20.1781 45.6703 18.8001 46.2985 17.2835C46.9267 15.767 47.25 14.1415 47.25 12.5L43.9049 12.5C43.9049 13.7022 43.6681 14.8927 43.2081 16.0034C42.748 17.1142 42.0736 18.1234 41.2235 18.9735C40.3734 19.8236 39.3642 20.498 38.2534 20.958C37.1427 21.4181 35.9522 21.6549 34.75 21.6549C33.5478 21.6549 32.3573 21.4181 31.2466 20.9581C30.1358 20.498 29.1266 19.8236 28.2765 18.9735C27.4264 18.1234 26.752 17.1142 26.2919 16.0034C25.8319 14.8927 25.5951 13.7022 25.5951 12.5H22.25Z" fill="#D9D9D9"/>
<path d="M22.25 12.5C22.25 14.1415 22.5733 15.767 23.2015 17.2835C23.8297 18.8001 24.7504 20.1781 25.9112 21.3388C27.0719 22.4996 28.4499 23.4203 29.9665 24.0485C31.483 24.6767 33.1085 25 34.75 25C36.3915 25 38.017 24.6767 39.5335 24.0485C41.0501 23.4203 42.4281 22.4996 43.5888 21.3388C44.7496 20.1781 45.6703 18.8001 46.2985 17.2835C46.9267 15.767 47.25 14.1415 47.25 12.5L43.9049 12.5C43.9049 13.7022 43.6681 14.8927 43.2081 16.0034C42.748 17.1142 42.0736 18.1234 41.2235 18.9735C40.3734 19.8236 39.3642 20.498 38.2534 20.958C37.1427 21.4181 35.9522 21.6549 34.75 21.6549C33.5478 21.6549 32.3573 21.4181 31.2466 20.9581C30.1358 20.498 29.1266 19.8236 28.2765 18.9735C27.4264 18.1234 26.752 17.1142 26.2919 16.0034C25.8319 14.8927 25.5951 13.7022 25.5951 12.5H22.25Z" stroke="#1D3A55" stroke-width="4" mask="url(#path-3-outside-1_3_192)"/>
<path d="M0.75 12.5C0.75 14.1415 1.07332 15.767 1.70151 17.2835C2.32969 18.8001 3.25043 20.1781 4.41117 21.3388C5.5719 22.4996 6.94989 23.4203 8.46646 24.0485C9.98303 24.6767 11.6085 25 13.25 25C14.8915 25 16.517 24.6767 18.0335 24.0485C19.5501 23.4203 20.9281 22.4996 22.0888 21.3388C23.2496 20.1781 24.1703 18.8001 24.7985 17.2835C25.4267 15.767 25.75 14.1415 25.75 12.5L22.2679 12.5C22.2679 13.6842 22.0347 14.8569 21.5815 15.951C21.1283 17.0451 20.464 18.0392 19.6266 18.8766C18.7892 19.714 17.7951 20.3783 16.701 20.8315C15.6069 21.2847 14.4343 21.5179 13.25 21.5179C12.0658 21.5179 10.8931 21.2847 9.79899 20.8315C8.70489 20.3783 7.71076 19.714 6.87336 18.8766C6.03597 18.0392 5.37172 17.0451 4.91852 15.951C4.46533 14.8569 4.23208 13.6842 4.23208 12.5H0.75Z" fill="#D9D9D9"/>
<path d="M94.25 24.5C94.25 22.8585 94.5733 21.233 95.2015 19.7165C95.8297 18.1999 96.7504 16.8219 97.9112 15.6612C99.0719 14.5004 100.45 13.5797 101.966 12.9515C103.483 12.3233 105.108 12 106.75 12C108.392 12 110.017 12.3233 111.534 12.9515C113.05 13.5797 114.428 14.5004 115.589 15.6612C116.75 16.8219 117.67 18.1999 118.298 19.7165C118.927 21.233 119.25 22.8585 119.25 24.5L115.762 24.5C115.762 23.3165 115.529 22.1446 115.076 21.0512C114.623 19.9577 113.96 18.9642 113.123 18.1274C112.286 17.2905 111.292 16.6267 110.199 16.1737C109.105 15.7208 107.934 15.4877 106.75 15.4877C105.566 15.4877 104.395 15.7208 103.301 16.1737C102.208 16.6267 101.214 17.2905 100.377 18.1274C99.5405 18.9642 98.8767 19.9577 98.4237 21.0512C97.9708 22.1446 97.7377 23.3165 97.7377 24.5H94.25Z" fill="#D9D9D9"/>
<path fill-rule="evenodd" clip-rule="evenodd" d="M126.25 19.5V17C126.25 15.8954 127.145 15 128.25 15H139C140.243 15 141.25 16.0074 141.25 17.25C141.25 18.4926 140.243 19.5 139 19.5H126.25ZM126.25 22.5V25H123.25V15C123.25 13.3431 124.593 12 126.25 12H139C141.899 12 144.25 14.3505 144.25 17.25C144.25 20.1495 141.899 22.5 139 22.5H126.25Z" fill="#D9D9D9"/>
<path fill-rule="evenodd" clip-rule="evenodd" d="M151.25 19.5V17C151.25 15.8954 152.145 15 153.25 15H164C165.243 15 166.25 16.0074 166.25 17.25C166.25 18.4926 165.243 19.5 164 19.5H151.25ZM151.25 22.5V25H148.25V15C148.25 13.3431 149.593 12 151.25 12H164C166.899 12 169.25 14.3505 169.25 17.25C169.25 20.1495 166.899 22.5 164 22.5H151.25Z" fill="#D9D9D9"/>
<path d="M188.234 15.14L189.554 20.276C189.594 20.404 189.638 20.468 189.686 20.468C189.718 20.468 189.758 20.408 189.806 20.288L191.054 15.62C191.158 15.252 191.41 15.068 191.81 15.068C192.218 15.068 192.474 15.252 192.578 15.62L193.826 20.288C193.85 20.408 193.89 20.468 193.946 20.468C194.002 20.468 194.046 20.404 194.078 20.276L195.398 15.14H196.382L194.846 20.876C194.718 21.34 194.434 21.572 193.994 21.572C193.514 21.572 193.222 21.364 193.118 20.948L191.918 16.472C191.87 16.328 191.834 16.256 191.81 16.256C191.786 16.256 191.75 16.328 191.702 16.472L190.502 20.948C190.398 21.364 190.11 21.572 189.638 21.572C189.198 21.572 188.914 21.34 188.786 20.876L187.25 15.14H188.234ZM200.411 15.8C200.923 15.312 201.759 15.068 202.919 15.068C204.079 15.068 204.911 15.312 205.415 15.8C205.927 16.28 206.183 17.112 206.183 18.296C206.183 19.488 205.927 20.332 205.415 20.828C204.911 21.324 204.079 21.572 202.919 21.572C201.759 21.572 200.923 21.324 200.411 20.828C199.907 20.332 199.655 19.488 199.655 18.296C199.655 17.112 199.907 16.28 200.411 15.8ZM200.711 18.296C200.711 19.2 200.875 19.836 201.203 20.204C201.539 20.572 202.111 20.756 202.919 20.756C203.727 20.756 204.295 20.572 204.623 20.204C204.959 19.836 205.127 19.2 205.127 18.296C205.127 17.4 204.963 16.776 204.635 16.424C204.307 16.064 203.735 15.884 202.919 15.884C202.103 15.884 201.531 16.064 201.203 16.424C200.875 16.776 200.711 17.4 200.711 18.296ZM210.063 21.5V17.432C210.063 16.648 210.255 16.072 210.639 15.704C211.023 15.328 211.611 15.14 212.403 15.14H213.099V15.956H212.583C212.039 15.956 211.651 16.096 211.419 16.376C211.187 16.656 211.071 17.092 211.071 17.684V21.5H210.063ZM216.576 21.5V13.1H217.584V21.5H216.576ZM226.039 21.5H224.095C223.095 21.5 222.403 21.244 222.019 20.732C221.643 20.212 221.455 19.408 221.455 18.32C221.455 17.256 221.647 16.46 222.031 15.932C222.415 15.404 223.103 15.14 224.095 15.14H226.003V13.1H227.011V20.504C227.011 20.832 226.935 21.08 226.783 21.248C226.639 21.416 226.391 21.5 226.039 21.5ZM226.003 15.968H224.287C223.575 15.968 223.099 16.156 222.859 16.532C222.627 16.9 222.511 17.496 222.511 18.32C222.511 19.168 222.627 19.776 222.859 20.144C223.091 20.504 223.567 20.684 224.287 20.684H225.583C225.743 20.684 225.851 20.652 225.907 20.588C225.971 20.516 226.003 20.396 226.003 20.228V15.968ZM237.155 15.14L238.475 20.276C238.515 20.404 238.559 20.468 238.607 20.468C238.639 20.468 238.679 20.408 238.727 20.288L239.975 15.62C240.079 15.252 240.331 15.068 240.731 15.068C241.139 15.068 241.395 15.252 241.499 15.62L242.747 20.288C242.771 20.408 242.811 20.468 242.867 20.468C242.923 20.468 242.967 20.404 242.999 20.276L244.319 15.14H245.303L243.767 20.876C243.639 21.34 243.355 21.572 242.915 21.572C242.435 21.572 242.143 21.364 242.039 20.948L240.839 16.472C240.791 16.328 240.755 16.256 240.731 16.256C240.707 16.256 240.671 16.328 240.623 16.472L239.423 20.948C239.319 21.364 239.031 21.572 238.559 21.572C238.119 21.572 237.835 21.34 237.707 20.876L236.171 15.14H237.155ZM254.192 21.5H250.868C249.98 21.5 249.376 21.24 249.056 20.72C248.736 20.192 248.576 19.4 248.576 18.344C248.576 17.16 248.792 16.32 249.224 15.824C249.656 15.32 250.404 15.068 251.468 15.068C252.388 15.068 253.1 15.256 253.604 15.632C254.108 16 254.36 16.636 254.36 17.54C254.36 17.924 254.288 18.208 254.144 18.392C254 18.568 253.756 18.656 253.412 18.656H249.62C249.62 18.952 249.636 19.208 249.668 19.424C249.708 19.632 249.776 19.84 249.872 20.048C249.968 20.256 250.116 20.416 250.316 20.528C250.524 20.632 250.78 20.684 251.084 20.684H254.192V21.5ZM249.62 17.84H253.016C253.208 17.84 253.304 17.732 253.304 17.516V17.468C253.304 16.412 252.696 15.884 251.48 15.884C250.816 15.884 250.34 16.032 250.052 16.328C249.764 16.616 249.62 17.12 249.62 17.84ZM258.51 15.14H261.858C262.402 15.14 262.814 15.296 263.094 15.608C263.374 15.92 263.514 16.344 263.514 16.88V20.54C263.514 20.876 263.438 21.12 263.286 21.272C263.134 21.424 262.878 21.5 262.518 21.5H259.686C259.11 21.5 258.69 21.344 258.426 21.032C258.162 20.712 258.03 20.22 258.03 19.556C258.03 18.268 258.582 17.624 259.686 17.624H262.506V16.868C262.506 16.26 262.206 15.956 261.606 15.956H258.51V15.14ZM262.506 18.44H259.878C259.582 18.44 259.374 18.536 259.254 18.728C259.142 18.912 259.086 19.188 259.086 19.556C259.086 19.924 259.142 20.204 259.254 20.396C259.374 20.588 259.582 20.684 259.878 20.684H262.17C262.394 20.684 262.506 20.576 262.506 20.36V18.44ZM270.762 21.5H270.006C269.254 21.5 268.726 21.332 268.422 20.996C268.126 20.66 267.978 20.148 267.978 19.46V15.956H267.042V15.14H267.978V13.1H268.986V15.14H270.762V15.956H268.986V19.4C268.986 19.88 269.086 20.216 269.286 20.408C269.494 20.592 269.846 20.684 270.342 20.684H270.762V21.5ZM274.295 21.5V13.1H275.303V15.14H277.487C278.215 15.14 278.763 15.312 279.131 15.656C279.507 15.992 279.695 16.54 279.695 17.3V21.5H278.687V17.432C278.687 16.936 278.583 16.568 278.375 16.328C278.167 16.08 277.827 15.956 277.355 15.956H275.303V21.5H274.295ZM289.184 21.5H285.86C284.972 21.5 284.368 21.24 284.048 20.72C283.728 20.192 283.568 19.4 283.568 18.344C283.568 17.16 283.784 16.32 284.216 15.824C284.648 15.32 285.396 15.068 286.46 15.068C287.38 15.068 288.092 15.256 288.596 15.632C289.1 16 289.352 16.636 289.352 17.54C289.352 17.924 289.28 18.208 289.136 18.392C288.992 18.568 288.748 18.656 288.404 18.656H284.612C284.612 18.952 284.628 19.208 284.66 19.424C284.7 19.632 284.768 19.84 284.864 20.048C284.96 20.256 285.108 20.416 285.308 20.528C285.516 20.632 285.772 20.684 286.076 20.684H289.184V21.5ZM284.612 17.84H288.008C288.2 17.84 288.296 17.732 288.296 17.516V17.468C288.296 16.412 287.688 15.884 286.472 15.884C285.808 15.884 285.332 16.032 285.044 16.328C284.756 16.616 284.612 17.12 284.612 17.84ZM293.226 21.5V17.432C293.226 16.648 293.418 16.072 293.802 15.704C294.186 15.328 294.774 15.14 295.566 15.14H296.262V15.956H295.746C295.202 15.956 294.814 16.096 294.582 16.376C294.35 16.656 294.234 17.092 294.234 17.684V21.5H293.226ZM305.696 15.14H309.044C309.588 15.14 310 15.296 310.28 15.608C310.56 15.92 310.7 16.344 310.7 16.88V20.54C310.7 20.876 310.624 21.12 310.472 21.272C310.32 21.424 310.064 21.5 309.704 21.5H306.872C306.296 21.5 305.876 21.344 305.612 21.032C305.348 20.712 305.216 20.22 305.216 19.556C305.216 18.268 305.768 17.624 306.872 17.624H309.692V16.868C309.692 16.26 309.392 15.956 308.792 15.956H305.696V15.14ZM309.692 18.44H307.064C306.768 18.44 306.56 18.536 306.44 18.728C306.328 18.912 306.272 19.188 306.272 19.556C306.272 19.924 306.328 20.204 306.44 20.396C306.56 20.588 306.768 20.684 307.064 20.684H309.356C309.58 20.684 309.692 20.576 309.692 20.36V18.44ZM315.788 21.5V23.54H314.78V16.136C314.78 15.472 315.128 15.14 315.824 15.14H317.732C318.7 15.14 319.376 15.404 319.76 15.932C320.144 16.452 320.336 17.24 320.336 18.296C320.336 19.36 320.144 20.16 319.76 20.696C319.376 21.232 318.7 21.5 317.732 21.5H315.788ZM315.788 16.328V20.684H317.552C317.848 20.684 318.1 20.644 318.308 20.564C318.524 20.484 318.692 20.38 318.812 20.252C318.94 20.116 319.04 19.94 319.112 19.724C319.184 19.508 319.228 19.292 319.244 19.076C319.268 18.86 319.28 18.6 319.28 18.296C319.28 17.912 319.26 17.596 319.22 17.348C319.18 17.092 319.104 16.852 318.992 16.628C318.88 16.396 318.704 16.228 318.464 16.124C318.224 16.012 317.92 15.956 317.552 15.956H316.16C315.912 15.956 315.788 16.08 315.788 16.328ZM325.219 21.5V23.54H324.211V16.136C324.211 15.472 324.559 15.14 325.255 15.14H327.163C328.131 15.14 328.807 15.404 329.191 15.932C329.575 16.452 329.767 17.24 329.767 18.296C329.767 19.36 329.575 20.16 329.191 20.696C328.807 21.232 328.131 21.5 327.163 21.5H325.219ZM325.219 16.328V20.684H326.983C327.279 20.684 327.531 20.644 327.739 20.564C327.955 20.484 328.123 20.38 328.243 20.252C328.371 20.116 328.471 19.94 328.543 19.724C328.615 19.508 328.659 19.292 328.675 19.076C328.699 18.86 328.711 18.6 328.711 18.296C328.711 17.912 328.691 17.596 328.651 17.348C328.611 17.092 328.535 16.852 328.423 16.628C328.311 16.396 328.135 16.228 327.895 16.124C327.655 16.012 327.351 15.956 326.983 15.956H325.591C325.343 15.956 325.219 16.08 325.219 16.328Z" fill="white"/>
</svg>
